<svg width="716" height="760" xmlns="http://www.w3.org/2000/svg">
 <title>personal_information</title>

 <g>
  <title>background</title>
  <rect x="-1" y="-1" width="718" height="762" id="canvas_background" fill="none"/>
 </g>
 <g>
  <title>Layer 1</title>
  <path d="m716,430c0,163.89 -119.49,299.89 -276.1,325.62a332.43752,332.43752 0 0 1 -53.9,4.38a329.92955,329.92955 0 0 1 -330,-330c0,-182.25 147.75,-330 330,-330a328.48456,328.48456 0 0 1 192.01,61.6c83.55,59.86 137.99,157.77 137.99,268.4z" fill="#39d085" id="svg_2"/>
  <path d="m615.06786,109.89381l28.66016,-8.93607l2.47252,-25.24147s-69.70783,-26.3317 -91.99361,20.24431c-7.86881,16.44533 -17.78612,26.32181 -27.32452,32.21782c-13.13849,8.12153 -29.33272,9.07457 -43.84136,3.7758c-48.31123,-17.64388 -59.68824,32.53114 -59.68824,32.53114s4.17627,7.14246 33.9562,8.89857c14.8204,0.874 26.94714,12.02675 35.39079,23.01105c18.08056,23.52114 55.21977,16.72343 64.33919,-11.50758q0.2204,-0.68255 0.43415,-1.38248c14.24559,-46.667 79.10078,-9.51094 79.10078,-9.51094l4.14032,-42.26841l-25.64638,-21.83174z" fill="#2f2e41" id="svg_3"/>
  <circle cx="419.78382" cy="189.02224" r="35.10278" fill="#2f2e41" id="svg_4"/>
  <circle cx="402.23241" cy="282.62975" r="93.60751" fill="#2f2e41" id="svg_5"/>
  <circle cx="399.30717" cy="316.75749" r="64.35516" fill="#a0616a" id="svg_6"/>
  <path d="m373.95514,365.5114l11.70094,62.405l58.50469,-7.80063s-9.75078,-48.75391 -3.90031,-62.405l-66.30532,7.80063z" fill="#a0616a" id="svg_7"/>
  <path d="m85.332,607.3308s-66.30532,-39.00313 -72.15579,-11.70094s66.3053,39.00314 66.3053,39.00314l5.85049,-27.3022z" fill="#a0616a" id="svg_8"/>
  <path d="m489.01437,229.00045s-46.80375,-35.10282 -66.30532,-21.45172s52.65422,58.50469 60.45485,54.60438s5.85047,-33.15266 5.85047,-33.15266z" fill="#a0616a" id="svg_9"/>
  <path d="m444.16077,386.96312l-70.20563,11.70094l0,31.2025s-66.30532,21.45173 -66.30532,31.20251s-17.55141,46.80375 -17.55141,46.80375s-42.90344,31.20251 -7.80062,68.25548c0,0 13.65109,21.45172 3.90031,23.40188s-31.2025,7.80062 -21.45172,15.60125s156.01251,60.45485 167.71345,56.55457s101.40817,-142.36146 101.40817,-177.46427s-37.053,-85.80689 -37.053,-85.80689l-42.90345,-5.85047l-9.75078,-15.60125z" fill="#d0cde1" id="svg_10"/>
  <path d="m313.50029,459.11891s-27.30219,-3.90031 -37.053,29.25235s-42.90345,140.41126 -42.90345,140.41126s-118.95954,-1.95015 -150.162,-31.2025l-13.6511,44.8536s179.4144,64.35516 195.01565,52.65422s83.85673,-200.86611 83.85673,-200.86611l-35.10283,-35.10282z" fill="#d0cde1" id="svg_11"/>
  <path d="m490.96453,414.26531l5.85047,-5.85047s74.10594,-79.95641 72.15578,-99.458c0,0 -39.00312,-48.75391 -87.757,-35.10281c0,0 -21.45172,-52.65423 11.70094,-50.70407s156.01248,-5.85045 154.06228,50.70404s-118.9595,230.11851 -118.9595,230.11851l-37.05297,-89.7072z" fill="#d0cde1" id="svg_12"/>
  <path d="m439.9,755.62a332.43752,332.43752 0 0 1 -53.9,4.38a328.46686,328.46686 0 0 1 -163.57,-43.33l11.59,-23.47l36.89,-74.76l1.64,-3.31l26.87,8.1l134.99,40.66l0.37006,6.23l5.11994,85.5z" fill="#2f2e41" id="svg_13"/>
  <ellipse cx="648.67159" cy="1285.25525" rx="40.95329" ry="64.35516" transform="rotate(-71.2083, -185.561, 948.228)" fill="#2f2e41" id="svg_14"/>
  <path d="m-191.40256,352.55629c13.5524,-24.83118 46.01231,-40.5539 72.56588,-26.38219c11.9521,6.37887 21.453,17.66311 24.46934,31.00044c3.50391,15.49324 -3.875,30.2656 -11.48815,43.282c-4.1321,7.06475 -8.65974,13.98587 -12.07963,21.43785c-3.54139,7.71673 -6.07177,16.63614 -3.40555,25.0311c2.40209,7.56329 8.41771,13.06443 15.00773,17.10718a111.82571,111.82571 0 0 0 23.06105,10.29521a135.74212,135.74212 0 0 0 51.48525,6.66089a140.79482,140.79482 0 0 0 25.65993,-4.148c8.94347,-2.27978 17.71919,-5.17 26.67734,-7.39514c14.95643,-3.715 32.00927,-5.56181 46.191,1.903c13.77762,7.25206 19.94382,22.41914 21.8514,37.1745c3.52233,27.24554 -7.28117,55.52031 -26.78642,74.6019c-9.35766,9.1544 -21.13384,16.71654 -33.96016,19.811c-11.19142,2.7 -25.56139,2.527 -34.46664,-5.83912c-9.93849,-9.33685 -7.60451,-24.30918 0.29265,-34.16047c10.07547,-12.56862 27.14314,-15.58788 42.37434,-15.89363c17.32642,-0.34781 34.636,2.23245 51.952,0.62849a79.79791,79.79791 0 0 0 24.56814,-5.92628a62.258,62.258 0 0 0 18.51515,-12.52935c10.68957,-10.38574 17.89563,-24.22241 21.48538,-38.60847c4.317,-17.30075 3.376,-35.482 0.02495,-52.85855a238.35678,238.35678 0 0 0 -6.88813,-26.50745c-1.15724,-3.66956 -6.95166,-2.10226 -5.78568,1.595c10.31994,32.72422 16.07353,70.563 -3.86507,100.94554a60.10714,60.10714 0 0 1 -35.94321,25.87346c-17.25707,4.28882 -35.36519,2.16856 -52.90853,1.53055c-16.682,-0.60668 -34.997,0.04762 -49.29947,9.76363c-11.731,7.96919 -19.93576,23.12692 -16.39008,37.43725c3.41923,13.8 16.68122,20.797 29.94512,21.8781c13.91688,1.13429 27.61207,-3.53732 39.29944,-10.84092c24.31288,-15.19346 40.47873,-41.91259 43.86236,-70.24154c1.76311,-14.76131 -0.03065,-30.661 -6.72468,-44.05932a43.133,43.133 0 0 0 -15.84676,-17.66125c-6.81034,-4.17513 -14.67638,-6.22986 -22.57559,-6.9574c-17.94764,-1.653 -35.19238,4.50906 -52.21755,9.22283a144.79191,144.79191 0 0 1 -26.6282,5.08271a132.98378,132.98378 0 0 1 -26.27173,-0.42791a129.36219,129.36219 0 0 1 -25.45722,-5.64965a101.89165,101.89165 0 0 1 -23.10771,-10.447c-6.38519,-4.08327 -11.9068,-9.93075 -12.22091,-17.89514c-0.34077,-8.64067 4.01574,-16.7238 8.16022,-24.009c8.18678,-14.39074 18.2966,-28.46728 20.4346,-45.31431c1.87017,-14.73655 -4.05969,-29.262 -14.29848,-39.77289a53.77092,53.77092 0 0 0 -39.73716,-16.48481c-15.193,0.43466 -29.74017,7.04159 -40.9151,17.18861a67.3583,67.3583 0 0 0 -13.79628,17.53026c-1.85057,3.39068 3.32842,6.42236 5.18082,3.02831l0,-0.00002z" fill="#3f3d56" id="svg_15"/>
 </g>
</svg>