<svg width="270" height="560" xmlns="http://www.w3.org/2000/svg">

 <g>
  <title>background</title>
  <rect fill="none" id="canvas_background" height="562" width="272" y="-1" x="-1"/>
 </g>
 <g>
  <title>Layer 1</title>
  <rect id="svg_1" fill="#ccc" height="123" width="110" y="249" x="40.55666"/>
  <path id="svg_3" fill="#e6e6e6" d="m97.00709,522.23232l-1.88975,25.83495a8.22428,8.22428 0 0 0 8.69988,8.80928l13.26993,-0.80373a4.19488,4.19488 0 0 0 3.8153,-5.2044l-7.36594,-29.46281l-16.52942,0.82671z"/>
  <path id="svg_4" fill="#e6e6e6" d="m208.00265,537.50938c15.6176,3.6534 26.77411,8.84633 34.103,15.87434a15.03539,15.03539 0 0 0 9.62359,4.1254c4.59653,0.24174 8.35492,-0.27349 11.17944,-1.53511l0.00045,0a4.43019,4.43019 0 0 0 2.62469,-3.65076a4.50814,4.50814 0 0 0 -1.88846,-4.16687l-37.03954,-26.3546l-15.73318,6.294l-3.67016,3.67016a3.63415,3.63415 0 0 0 0.8002,5.74346l-0.00003,-0.00002z"/>
  <path id="svg_5" fill="#2f2e41" d="m159.94022,115.69455l-105.87329,-0.98031c0.26623,-15.42064 3.85407,-30.56331 11.69669,-44.11378c5.15076,-8.89946 5.03948,-18.58474 3.7982,-26.7444c-1.91555,-12.592 2.53886,-25.47548 12.43708,-33.49119a39.916,39.916 0 0 1 26.84266,-8.88134l2.0558,0.08566a40.00777,40.00777 0 0 1 32.87054,19.76983a33.32736,33.32736 0 0 1 3.96134,20.30073c-0.67106,6.60129 0.93466,13.26982 4.6906,20.00186c6.47994,14.78258 7.88315,33.6988 7.52038,54.05294z"/>
  <path id="svg_6" fill="#39d085" d="m230.77487,523.17633l-20.77878,5.42055l-101.1836,-220.4357l6.324,215.01515l-20.7788,0c-22.2035,-101.15879 -62.29053,-217.90681 -44.26782,-254.76585l107.50757,-6.324l73.17743,261.08985z"/>
  <circle id="svg_7" fill="#ffb9b9" r="28.00618" cy="50.68505" cx="107.90906"/>
  <path id="svg_8" fill="#ffb9b9" d="m132.30154,102.18028l-46.07467,-2.71028c4.51541,-10.36377 6.31912,-20.34363 4.51712,-29.813l34.33015,0c-0.0778,7.27061 3.54031,19.84742 7.2274,32.52328z"/>
  <polygon id="svg_9" fill="#39d085" points="161.21099853515625,270.2170104980469 60.02799987792969,277.44500732421875 70.41700744628906,98.11499786376953 88.03399658203125,93.14600372314453 107.90899658203125,97.66300201416016 127.78399658203125,87.7249984741211 140.4320068359375,92.24299621582031 161.21099853515625,270.2170104980469 "/>
  <path id="svg_10" fill="#e6e6e6" d="m77.19262,399.4071l-69.112,-15.80994c20.5506,-68.14818 57.57349,-224.05122 45.623,-279.61l36.137,-16.26165l-12.648,311.68159z"/>
  <path id="svg_11" fill="#e6e6e6" d="m43.76589,202.46045l-26.19932,-16.26165l22.3434,-65.4394a30.87113,30.87113 0 0 1 13.49426,-16.02839l7.52674,-4.35758l-4.51713,65.95l-12.64795,36.13702z"/>
  <path id="svg_12" fill="#e6e6e6" d="m221.28891,384.50061c-21.81327,12.62013 -76.33909,19.65509 -100.28018,10.8411c-1.76169,-61.57277 -5.21664,-235.739 5.87226,-309.42306l39.7507,16.26165l-3.6137,48.78495c-19.00407,41.73287 36.17963,187.08874 58.27092,233.53536z"/>
  <polygon id="svg_13" fill="#e6e6e6" points="218.12701416015625,194.3300018310547 193.7340087890625,186.19900512695312 161.21099853515625,149.1580047607422 166.63198852539062,102.18000030517578 220.83700561523438,178.0679931640625 218.12701416015625,194.3300018310547 "/>
  <path id="svg_14" fill="#ffb9b9" d="m141.68119,229.49394a6.78537,6.78537 0 0 0 8.10524,5.11221l20.706,-4.68917l-2.99259,-13.21656l-20.70643,4.68828a6.77693,6.77693 0 0 0 -5.11221,8.10524l-0.00001,0z"/>
  <path id="svg_15" fill="#2f2e41" d="m132.30154,43.45761c-15.55574,-6.3965 -30.9192,-6.85936 -46.07467,-0.90342l-6.324,-22.58563l57.8192,0l-5.42053,23.48905z"/>
  <path id="svg_16" fill="#e6e6e6" d="m160.30772,214.20498l11.74452,21.6822c19.7541,-5.50955 36.87412,-22.87878 53.30208,-43.3644l-4.51713,-14.4548l-28.00617,7.2274l-32.5233,28.9096z"/>
  <path id="svg_17" fill="#3f3d56" d="m151.72518,169.48544l-3.6137,0c0,-51.11057 -10.52349,-86.7288 -20.77877,-86.7288l-0.90343,-3.6137c9.197,0 15.06047,14.824 18.35964,27.26023c4.47302,16.85938 6.93626,39.26237 6.93626,63.08227z"/>
  <path id="svg_18" fill="#3f3d56" d="m68.61008,156.83749l-3.61374,0c0,-46.80915 10.59628,-75.8877 26.19933,-75.8877l-0.90343,3.6137c-10.79254,0 -21.68216,22.34786 -21.68216,72.274z"/>
  <circle id="svg_19" fill="#3f3d56" r="9.03425" cy="170.38886" cx="149.91832"/>
  <path id="svg_20" fill="#3f3d56" d="m54.15528,178.51969l-3.6137,0c0,-12.95189 7.29489,-23.48905 16.26165,-23.48905l0,3.6137c-6.97419,0 -12.64795,8.91603 -12.64795,19.87535z"/>
  <path id="svg_21" fill="#3f3d56" d="m83.06488,178.51969l-3.6137,0c0,-10.95932 -5.67376,-19.87535 -12.64795,-19.87535l0,-3.61373c8.96676,0 16.26165,10.53719 16.26165,23.48908z"/>
  <circle id="svg_22" fill="#3f3d56" r="3.6137" cy="179.42311" cx="81.25802"/>
  <circle id="svg_23" fill="#3f3d56" r="3.6137" cy="179.42311" cx="52.34842"/>
  <polygon id="svg_24" fill="#39d085" points="7.177001953125,146.1929931640625 29.7239990234375,150.218994140625 81.25799560546875,223.4949951171875 53.8800048828125,217.05299377441406 7.177001953125,146.1929931640625 "/>
  <path id="svg_25" fill="#3f3d56" d="m3.17794,145.29588a1.91768,1.91768 0 0 0 -1.5735,2.971l48.17135,73.08788a1.91143,1.91143 0 0 0 1.16016,0.81035l22.4127,5.27321a1.91439,1.91439 0 0 0 2.00447,-2.9648l-52.88918,-75.20177a1.90335,1.90335 0 0 0 -1.22941,-0.783l-17.69531,-3.16023a2.07607,2.07607 0 0 0 -0.36128,-0.03264z"/>
  <path id="svg_26" fill="#ffb9b9" d="m33.22741,197.55293l1.33881,13.48521l21.12638,-2.09711a6.77573,6.77573 0 0 0 -1.33837,-13.48521l-21.12682,2.09711z"/>
  <path id="svg_27" fill="#e6e6e6" d="m14.85673,195.9909a17.42694,17.42694 0 0 0 17.40637,17.31065l3.47387,0l2.529,-21.07565l-20.93979,-7.53839l-2.46945,11.30339z"/>
 </g>
</svg>