<svg width="758" height="714.74" xmlns="http://www.w3.org/2000/svg" xmlns:xlink="http://www.w3.org/1999/xlink">
 <defs>
  <linearGradient y2="0" x2="0.49995" y1="1.00003" x1="0.49995" id="ac3cc305-f6db-42f4-bbbd-32121ee27a74">
   <stop stop-opacity="0.25" stop-color="gray" offset="0"/>
   <stop stop-opacity="0.12" stop-color="gray" offset="0.54"/>
   <stop stop-opacity="0.1" stop-color="gray" offset="1"/>
  </linearGradient>
  <linearGradient xlink:href="#ac3cc305-f6db-42f4-bbbd-32121ee27a74" y2="263.72" x2="940.67" y1="825.72" x1="940.67" id="ad14f186-b27f-416c-b629-0bafa2f1236e"/>
 </defs>
 <title>medicine</title>
 <g>
  <title>background</title>
  <rect fill="none" id="canvas_background" height="716.74" width="760" y="-1" x="-1"/>
 </g>
 <g>
  <title>Layer 1</title>
  <rect id="svg_39" opacity="0.1" fill="#f9a826" height="28.44" width="28.44" y="300.6" x="632.4"/>
  <rect id="svg_41" opacity="0.1" fill="#f9a826" height="28.44" width="28.44" y="370.75" x="632.4"/>
  <rect id="svg_43" opacity="0.1" fill="#f9a826" height="28.44" width="28.44" y="440.89" x="632.4"/>
  <rect id="svg_45" opacity="0.1" fill="#f9a826" height="28.44" width="28.44" y="511.04" x="632.4"/>
  <path id="svg_57" fill="url(#ac3cc305-f6db-42f4-bbbd-32121ee27a74)" d="m214.6,318.67s-3.94,-0.55 -3.94,-6.29s-2.82,-16.46 -2.82,-16.46l0,0c0,-0.05 -2.44,-18.67 -5.81,-21.63s-7.7,-20.34 -7.7,-20.34s-0.74,-9.43 -2.25,-11.46s-3.55,-7 -6.56,-14.09s-15.56,-12 -15.56,-12s-22.69,-13.16 -29.12,-17.45l0,0a9.86,9.86 0 0 1 -1.63,-1.23c-1.12,-1.47 -6,-1.5 -6,-1.5c-0.51,-3.22 -1,-6.92 -1.16,-10.27c0,-0.36 0,-0.72 -0.05,-1.08a34.6,34.6 0 0 0 15.21,-18.82c0.12,-0.38 0.22,-0.78 0.33,-1.16a3.25,3.25 0 0 0 1.95,-1.76c0.58,-1.29 0.59,-2.8 1.31,-4c0.84,-1.42 2.44,-2.18 3.7,-3.25c3.18,-2.7 4,-7.25 3.85,-11.39c-0.1,-3.35 -0.64,-6.73 -0.43,-10.06l0.06,-0.84c0.06,-0.5 0.13,-1 0.22,-1.48c0.49,-2.48 1.56,-4.82 2.16,-7.28s0.66,-5.23 -0.74,-7.35c-2.05,-3.11 -6.32,-3.73 -10.07,-4.05c-4.25,-0.36 -8.05,0.11 -10.77,-3.42a38.39,38.39 0 0 0 -4.28,-5.17c-0.56,-0.52 -6,-3.84 -6,-4.06a24.31,24.31 0 0 0 -16.95,-1.3c-2.82,0.82 -5.48,2.16 -8.34,2.83c-6.17,1.46 -13.27,-0.12 -18.51,3.41c-2.92,2 -4.67,5.18 -6.31,8.28q-2,3.83 -4.06,7.65c-2.21,4.19 -4.46,8.45 -5.39,13.09a20.78,20.78 0 0 0 -0.36,3.06l0,0l0,0.05c0,0.37 0,0.74 0,1.11l0,0.47c0,0.35 0,0.69 0.06,1s0.05,0.41 0.08,0.62s0.08,0.68 0.14,1s0.18,0.88 0.3,1.32c0.05,0.19 0.12,0.37 0.18,0.55c0.1,0.34 0.22,0.67 0.35,1c0.07,0.17 0.14,0.35 0.22,0.52c0.15,0.35 0.33,0.69 0.51,1c0.08,0.14 0.14,0.27 0.22,0.4a13.27,13.27 0 0 0 0.92,1.34c2.14,2.67 5.29,4.37 7.62,6.87c0,0.1 0,0.2 0,0.29c0,0.28 0,0.55 0,0.83a34.23,34.23 0 0 0 15.58,27.95c0,0.38 0.05,0.77 0.07,1.15a57.22,57.22 0 0 1 -0.11,8.91a4.2,4.2 0 0 0 -3.32,-1.48a4.79,4.79 0 0 0 -1.28,0.11l-0.09,-0.07l0,0l0,0.09c-2.2,0.54 -4.91,2.83 -7.5,9.34c0,0 -7.88,8.88 -13.88,8.51s-21.19,9.24 -21.19,9.24s-14.82,9.62 -18,19.42a136.86,136.86 0 0 1 -6.38,16.28l-18.32,37.75l0,0l-3.38,29.95s1.87,13.32 1.5,15.35s7.69,20.34 7.69,20.34s26.63,46.79 37.51,49.19l0.78,-0.55a6.38,6.38 0 0 0 1.47,0.55l2.24,-1.58a24.41,24.41 0 0 1 -0.17,5.28c-1.5,4.62 0.56,34.77 3.18,40.68s1.69,83.4 1.69,83.4l-0.37,6.84s0,0.22 0.09,0.6l-0.09,1.62l0.27,0.14a19.26,19.26 0 0 1 -0.27,6.51c-0.94,3 -1.32,11.48 -1.32,11.48s-7.49,47.88 -3.94,57.5s6.57,20.16 6.57,20.16s3.75,12 0.18,14.05s-13.72,5.49 -11.63,10.49c1.9,4.62 9.11,17 10.18,18.81l-0.09,0.95l-1.47,15.93a20,20 0 0 0 1.69,6.08c1.61,3.47 4.74,7.07 10.69,6.68c1,-0.07 2.16,-0.19 3.28,-0.34c10.89,-1.46 24.3,-6.32 24.3,-6.32a9.91,9.91 0 0 1 -1.9,-1.57l0,0a5.49,5.49 0 0 1 -1.67,-4c0.16,-2.9 -5.27,-16.72 -6.62,-20.12c-0.21,-0.49 -0.32,-0.77 -0.32,-0.77s12.38,-12.94 10.32,-24.41c0,0 -13.7,-8 -9.19,-12.39s12.57,-17 12.57,-17s0.37,-47.15 0,-54.19a58.3,58.3 0 0 1 0.69,-14.63c0.15,-0.73 0.33,-1.44 0.52,-2.14a130.55,130.55 0 0 0 18.84,1.43c2.3,0 4.64,0 7,-0.14q0,1 0.09,2.16c0.52,11.68 1.49,32.16 2.28,39.77c1.12,10.91 7.31,40.31 7.31,40.31s-11.81,7.58 2.06,26.26c0,0 0,6.77 -0.92,7.75l0,0a84.78,84.78 0 0 0 -2.37,9.76c-0.58,3.52 -0.82,7.08 0.12,8.93c2.25,4.42 15.75,4.06 15.75,4.06l0,0l0.33,-0.06a19.35,19.35 0 0 1 14.29,4.31c5.13,4.12 24.6,2.31 35.14,1c4.13,-0.52 6.89,-1 6.89,-1a4,4 0 0 0 0.14,-1.44l0,0c-0.11,-2.59 -2.14,-8.27 -15.9,-13.34c0,0 -12.94,-8.7 -12.76,-16.28l-0.27,0l-1.5,0c1.09,-0.06 1.79,0 1.79,0s-5.07,-18.5 -3,-20s-4.13,-22 -4.13,-22s-3.55,-34.4 -3.74,-36.81a21,21 0 0 1 0.93,-6.1l-0.93,-18.86s-0.18,-6.27 0,-8.31a41.5,41.5 0 0 0 -0.43,-5.29c-0.09,-0.7 -0.18,-1.43 -0.28,-2.15c4.85,-1.23 8,-2.37 8,-2.37l-0.56,-65.65c4.12,-8 4.88,-25.55 4.86,-38c0,-8 -0.36,-13.92 -0.36,-13.92l5.63,-9.19s1.3,-11 -0.76,-13.41c-0.91,-1.09 -0.5,-2.22 0.25,-3.15a10.46,10.46 0 0 1 1.23,-0.84s-0.06,-0.09 -0.13,-0.22a9.94,9.94 0 0 1 1.25,-0.89s-2,-3.1 -0.21,-4.41c1.68,1.14 3.18,2 4.32,2.7c-0.08,0.73 -0.16,1.15 -0.16,1.15l0.48,-1c1.1,0.62 1.77,1 1.77,1s8.82,-17.57 8.63,-20.16s6,-13.5 6,-13.5s0.75,-5.73 4.13,-8.13s2.62,-19.79 2.62,-19.79s0.94,-9.06 3.19,-12.76s-2.05,-8.69 -2.05,-8.69zm-168.76,-7.71l0.17,4.19c-1,-1.61 -1.72,-2.77 -1.72,-2.77l1.55,-1.42z"/>
  <path id="svg_58" fill="#fff" d="m192.56,394.11l-2.16,9.2s-17.3,-8.83 -20.42,-20.05s5.22,-15.48 5.22,-15.48l16.12,6.83l1.24,19.5z"/>
  <path id="svg_59" opacity="0.1" d="m192.56,394.11l-2.16,9.2s-17.3,-8.83 -20.42,-20.05s5.22,-15.48 5.22,-15.48l16.12,6.83l1.24,19.5z"/>
  <path id="svg_60" fill="#fff" d="m95.47,707.22s-16,5.88 -27,6.62c-5.84,0.39 -8.91,-3.19 -10.49,-6.64a20.1,20.1 0 0 1 -1.65,-6.05l1.43,-15.85l0.76,-8.44l23.37,-6.07l3.31,10.12l0.31,0.77c1.33,3.38 6.66,17.13 6.5,20a5.46,5.46 0 0 0 1.64,3.95a9.51,9.51 0 0 0 1.82,1.59z"/>
  <path id="svg_61" fill="#fff" d="m204.76,699.16a4,4 0 0 1 -0.14,1.43s-34.22,5.71 -41.22,0a18.54,18.54 0 0 0 -14.4,-4.22s-13.24,0.36 -15.45,-4c-0.92,-1.83 -0.68,-5.38 -0.11,-8.88a84.59,84.59 0 0 1 2.32,-9.71l0.53,-0.42l3.15,-2.53l36.88,-1.09l0.28,0c-0.18,7.54 12.52,16.19 12.52,16.19c13.49,5 15.48,10.65 15.64,13.23z"/>
  <path id="svg_62" opacity="0.1" d="m204.76,699.16a4.08,4.08 0 0 1 -0.15,1.43s-34.21,5.71 -41.21,0a18.54,18.54 0 0 0 -14.39,-4.22s-13.25,0.36 -15.45,-4c-0.92,-1.84 -0.69,-5.38 -0.12,-8.88c5.1,0.51 13.15,1.78 16.31,4.81c4.78,4.61 12.88,9.21 17.85,9.57c3.89,0.25 27.16,0.99 37.16,1.29z"/>
  <path id="svg_63" opacity="0.1" d="m95.47,707.22s-16,5.88 -27,6.62c-5.84,0.39 -8.91,-3.19 -10.48,-6.65c4.07,1.37 9.72,2.81 12.69,1.49c3.52,-1.56 16,-2.57 23,-3a9.85,9.85 0 0 0 1.79,1.54z"/>
  <path id="svg_64" fill="#cf6f80" d="m119.21,233.37c-13.2,-5.13 -30.18,-22.08 -25.94,-30a17.72,17.72 0 0 0 1.65,-6.36a58.07,58.07 0 0 0 0.12,-9a123.25,123.25 0 0 0 -1.77,-14.64s41.21,0.93 38.81,7c-0.7,1.78 -0.81,4.87 -0.62,8.33s0.69,7.37 1.21,10.68c0.72,4.54 1.44,8 1.44,8s-2.52,3.53 -4,3.72s8.04,29.58 -10.9,22.27z"/>
  <path id="svg_65" opacity="0.1" d="m85.48,681.68l-0.31,0.34c-12.32,-14.9 -27.22,3.67 -27.22,3.67l-0.22,-0.39l0.76,-8.44l23.37,-6.07l3.31,10.12l0.31,0.77z"/>
  <path id="svg_66" opacity="0.1" d="m176.61,670.79s-9,-0.19 -13.8,4.05s-28,0.92 -27,0a3.29,3.29 0 0 0 0.52,-1.52l3.15,-2.53l36.88,-1.09c0.14,0.67 0.25,1.09 0.25,1.09z"/>
  <path id="svg_67" fill="#f9a826" d="m100.81,553.78a27.82,27.82 0 0 0 -1.52,5.13a58.71,58.71 0 0 0 -0.69,14.56c0.37,7 0,53.91 0,53.91s-7.91,12.51 -12.32,16.92s9,12.33 9,12.33c2,11.4 -10.12,24.28 -10.12,24.28c-12.32,-14.9 -27.22,3.68 -27.22,3.68s-8.1,-14 -10.12,-19s7.91,-8.46 11.4,-10.49s-0.17,-14 -0.17,-14s-2.95,-10.49 -6.45,-20.06s3.86,-57.21 3.86,-57.21s0.38,-8.46 1.29,-11.41a19.08,19.08 0 0 0 0.27,-6.48c-0.06,-0.73 -0.13,-1.34 -0.18,-1.75s-0.09,-0.6 -0.09,-0.6l0.14,-0.24l5,-9.32s40.32,13.88 37.92,19.75z"/>
  <path id="svg_68" fill="#f9a826" d="m176.61,669.69s-9,-0.19 -13.8,4s-28,0.92 -27,0s0.92,-7.73 0.92,-7.73c-13.61,-18.58 -2,-26.12 -2,-26.12s-6.08,-29.25 -7.18,-40.1c-0.77,-7.58 -1.72,-27.95 -2.23,-39.58c-0.22,-5 -0.35,-8.44 -0.35,-8.44l11.12,-2.24l1.43,-0.29l26.82,-5.38s0.74,5 1.24,9.09a42.48,42.48 0 0 1 0.42,5.27c-0.18,2 0,8.26 0,8.26l0.91,18.77a21.32,21.32 0 0 0 -0.91,6.07c0.18,2.39 3.67,36.61 3.67,36.61s6.07,20.42 4,21.89s2.94,19.92 2.94,19.92z"/>
  <path id="svg_69" opacity="0.1" d="m132.08,180.37c-0.7,1.78 -0.81,4.87 -0.62,8.33a34.25,34.25 0 0 1 -36.42,-0.68a123.25,123.25 0 0 0 -1.77,-14.65s41.21,0.91 38.81,7z"/>
  <path id="svg_70" fill="#cf6f80" d="m148.01,158.27a33.87,33.87 0 0 1 -1.68,10.61a34.22,34.22 0 0 1 -66.74,-9.79c0,-0.28 0,-0.54 0,-0.82a34.22,34.22 0 1 1 68.43,0l-0.01,0z"/>
  <path id="svg_71" opacity="0.1" d="m119.21,233.37c-13.2,-5.13 -30.18,-22.08 -25.94,-30a17.72,17.72 0 0 0 1.65,-6.36l18.07,14.85l11.18,9.17l8.5,-21.64c0.72,4.54 1.44,8 1.44,8s-2.52,3.53 -4,3.72s8.04,29.57 -10.9,22.26z"/>
  <polygon id="svg_72" fill="#f9a826" points="165.94000244140625,299 150.85000610351562,552.5 131.17001342773438,553.7899780273438 80.20999145507812,406.79998779296875 88.57000732421875,232.29000854492188 90.32998657226562,195.42001342773438 112.989990234375,214.02999877929688 124.17999267578125,223.20001220703125 132.92999267578125,200.92999267578125 149.20001220703125,215.1099853515625 165.94000244140625,299 "/>
  <path id="svg_73" opacity="0.1" d="m100.81,553.78a27.82,27.82 0 0 0 -1.52,5.13a145,145 0 0 1 -41.26,-12.89l-0.27,-0.14l0.09,-1.61l0.05,-0.84l5,-9.32s40.31,13.8 37.91,19.67z"/>
  <path id="svg_74" opacity="0.1" d="m136.32,558.95a101.24,101.24 0 0 1 -11.06,1.26c-0.22,-5 -0.35,-8.44 -0.35,-8.44l11.12,-2.24l0.29,9.42z"/>
  <path id="svg_75" opacity="0.1" d="m165.52,552.95c-7.11,1.85 -18.09,3.93 -27.92,2.63l-0.14,-6.34l26.82,-5.38s0.74,4.95 1.24,9.09z"/>
  <path id="svg_76" opacity="0.1" d="m137.42,556.74c-41,7 -78.55,-13.07 -78.55,-13.07l0.36,-6.8s0.93,-77.09 -1.65,-83s-4.59,-35.88 -3.13,-40.48s-5.33,-73.58 -5.33,-73.58l-1.1,-28l-40.26,-16.31l18,-37.52a135.39,135.39 0 0 0 6.26,-16.2c3.13,-9.74 17.66,-19.31 17.66,-19.31s14.9,-9.56 20.79,-9.2s13.61,-8.46 13.61,-8.46c5.7,-14.53 10.86,-7.95 10.86,-7.95c0,0.69 0,0 -0.28,2.15c-2,15.95 32.34,66.35 32.83,67.24l0,0l3.27,79.66l3.31,100.81l3.35,110.02z"/>
  <path id="svg_77" fill="#fff" d="m136.32,556.74c-41,7 -78.56,-13.07 -78.56,-13.07l0.37,-6.8s0.93,-77.09 -1.66,-83s-4.59,-35.88 -3.12,-40.48s-5.33,-73.58 -5.33,-73.58l-1.11,-28l-40.28,-16.37l18,-37.52a137.51,137.51 0 0 0 6.26,-16.2c3.12,-9.74 17.66,-19.31 17.66,-19.31s14.9,-9.56 20.78,-9.2s13.61,-8.46 13.61,-8.46c5.71,-14.53 12,-7.95 12,-7.95c0,0.69 -0.6,1 -0.28,2.15c4.4,15.47 31.24,66.35 31.73,67.24l0,0l3.31,79.66l3.31,100.81l3.31,110.08z"/>
  <path id="svg_78" opacity="0.1" d="m125.27,268.46c-4.41,-1.84 -27.77,-28.51 -27.77,-28.51l0,-6.07c-0.85,-2 -5.9,-0.78 -10,0.62l1.76,-36.87l2,1.66c4.38,15.46 33.5,68.28 34.01,69.17z"/>
  <path id="svg_79" fill="#fff" d="m126.38,266.25c-4.42,-1.84 -27.78,-28.51 -27.78,-28.51l0,-6.07c-0.85,-2 -5.9,-0.78 -10,0.62l1.77,-36.87l2,1.66c4.39,15.46 33.52,68.29 34.01,69.17z"/>
  <path id="svg_80" opacity="0.1" d="m58.87,399.26c0.55,0 28.51,-2.94 28.51,-2.94s16.93,33.29 15.82,41.39s-3.12,15.27 -9.93,14s-36.65,1 -36.65,1l2.25,-53.45z"/>
  <path id="svg_81" fill="#fff" d="m57.76,397.05c0.55,0 28.51,-2.94 28.51,-2.94s16.92,33.3 15.82,41.39s-3.13,15.27 -9.93,14s-36.65,1 -36.65,1l2.25,-53.45z"/>
  <path id="svg_82" fill="#cf6f80" d="m78.83,381.42s25.66,13.79 26.21,18s-13.06,-1.84 -16,-2.57a36.61,36.61 0 0 0 -5.89,-0.92l-19.61,0.53l15.29,-15.04z"/>
  <circle id="svg_83" opacity="0.1" r="2.7" cy="267.48" cx="118.11"/>
  <circle id="svg_84" fill="#3f3d56" r="2.7" cy="266.38" cx="118.11"/>
  <circle id="svg_85" opacity="0.1" r="2.7" cy="384.36" cx="123.08"/>
  <circle id="svg_86" fill="#3f3d56" r="2.7" cy="383.25" cx="123.08"/>
  <circle id="svg_87" opacity="0.1" r="2.7" cy="325.92" cx="120.8"/>
  <circle id="svg_88" fill="#3f3d56" r="2.7" cy="324.82" cx="120.8"/>
  <path id="svg_89" fill="#fff" d="m183.04,395.37s1.84,2.76 0,4.05s0.18,4.41 0.18,4.41s-4.59,2.69 -2.57,5.11s0.74,13.35 0.74,13.35l-5.52,9.14s0.33,5.89 0.35,13.85c0,12.42 -0.73,29.88 -4.77,37.84l0.56,65.31s-19.33,7.06 -35.51,4.91l-2.4,-104.8s3.5,-59.43 4.79,-70.83a118.68,118.68 0 0 0 0.92,-17.85s-0.55,-17.84 -2.4,-26.12c0,0 -2,-35.87 -2.2,-45.8c-0.09,-4.75 0.16,-18.61 0.44,-31.79c0.31,-14.41 0.66,-28 0.66,-28l-3.65,-28.88s3.65,-0.37 4.75,1.1a10.53,10.53 0 0 0 1.6,1.23l0,0c6.3,4.26 28.56,17.36 28.56,17.36s12.32,4.9 15.27,11.92s5,12 6.43,14s2.21,11.4 2.21,11.4s4.24,17.3 7.55,20.23s5.73,21.57 5.73,21.57l-29.25,23s-2.57,38.26 -3.12,39.74s10.65,34.55 10.65,34.55z"/>
  <path id="svg_90" fill="#fff" d="m184.15,395.37s1.83,2.76 0,4.05s0.17,4.41 0.17,4.41s-4.56,2.72 -2.56,5.14s0.74,13.35 0.74,13.35l-5.52,9.14s0.33,5.89 0.36,13.85c0,12.42 -0.73,29.88 -4.77,37.84l0.55,65.31s-19.36,7.06 -35.52,4.91l-2.39,-104.8s3.5,-59.43 4.79,-70.83a117.58,117.58 0 0 0 0.91,-17.85s-0.55,-17.84 -2.39,-26.12c0,0 -2,-35.87 -2.21,-45.8c-0.09,-4.75 0.17,-18.61 0.44,-31.79c0.31,-14.41 0.66,-28 0.66,-28l-4.82,-29.27s4.82,0 5.93,1.49a9.49,9.49 0 0 0 1.6,1.23l0,0c6.3,4.26 28.57,17.36 28.57,17.36s12.31,4.9 15.26,11.92s5,12 6.44,14s2.2,11.4 2.2,11.4s4.24,17.3 7.55,20.23s5.7,21.53 5.7,21.53l-29.25,23s-2.57,38.26 -3.13,39.74s10.69,34.56 10.69,34.56z"/>
  <path id="svg_91" opacity="0.1" d="m149.12,236.67l2.64,7.7l-13.9,14c0.31,-14.4 0.66,-28 0.66,-28l-4.82,-29.27s4.82,0 5.93,1.49a9.12,9.12 0 0 0 1.6,1.22l0,0l11.82,34.1l-3.93,-1.24z"/>
  <path id="svg_92" fill="#fff" d="m148.01,234.46l2.65,7.7l-13.9,14c0.31,-14.41 0.66,-28 0.66,-28l-4.83,-29.27s4.83,0 5.93,1.49a10,10 0 0 0 1.6,1.23l0,0l11.83,34.09l-3.94,-1.24z"/>
  <path id="svg_93" opacity="0.1" d="m148.01,158.27a33.87,33.87 0 0 1 -1.68,10.61a1.43,1.43 0 0 1 -1.08,-0.27c-0.26,-9 -4.69,-17.45 -10.14,-24.64a25.89,25.89 0 0 0 -5.5,-5.7a10.76,10.76 0 0 0 -7.46,-2.11c-3,0.41 -5.65,2.45 -8.68,2.71c-4,0.33 -7.58,-2.44 -11.55,-2.58a11.35,11.35 0 0 0 -8.49,3.94a23.29,23.29 0 0 0 -4.55,8.44a49.38,49.38 0 0 0 -2.54,14.56c-0.05,2.8 -0.32,6.31 -2.92,7.33a14.94,14.94 0 0 0 -3.77,-11.41l-0.06,-0.06c0,-0.28 0,-0.54 0,-0.82a34.22,34.22 0 1 1 68.43,0l-0.01,0z"/>
  <path id="svg_94" fill="#512e4e" d="m127.97,103.94a23.56,23.56 0 0 0 -16.62,-1.3c-2.77,0.82 -5.38,2.15 -8.19,2.82c-6,1.45 -13,-0.12 -18.15,3.39c-2.86,2 -4.58,5.16 -6.18,8.23l-4,7.62c-2.18,4.17 -4.38,8.41 -5.29,13s-0.36,9.73 2.55,13.42c2.12,2.69 5.25,4.38 7.55,6.91a15,15 0 0 1 3.76,11.4c2.61,-1 2.86,-4.52 2.92,-7.32a49.38,49.38 0 0 1 2.54,-14.56a23.21,23.21 0 0 1 4.55,-8.44a11.37,11.37 0 0 1 8.49,-3.94c4,0.14 7.59,2.9 11.55,2.57c3,-0.25 5.66,-2.3 8.68,-2.7a10.72,10.72 0 0 1 7.46,2.11a25.62,25.62 0 0 1 5.49,5.7c5.46,7.19 9.89,15.62 10.15,24.64c1.13,0.83 2.76,-0.25 3.32,-1.53s0.58,-2.78 1.29,-4c0.82,-1.41 2.39,-2.16 3.62,-3.22c3.12,-2.69 3.9,-7.22 3.78,-11.33s-0.92,-8.28 -0.14,-12.32c0.47,-2.48 1.53,-4.8 2.11,-7.25s0.65,-5.2 -0.72,-7.31c-2,-3.1 -6.21,-3.71 -9.88,-4c-4.17,-0.36 -7.9,0.1 -10.56,-3.41a38.3,38.3 0 0 0 -4.2,-5.14c-0.53,-0.52 -5.88,-3.82 -5.88,-4.04z"/>
  <path id="svg_95" opacity="0.1" d="m19.28,314.82l-10.45,-19.32l-3.31,29.81s1.84,13.24 1.47,15.27s7.54,20.23 7.54,20.23s26.13,46.54 36.8,48.94l36.05,-25.76l-9.56,-12.14s-3.31,-1.29 -4.14,0c0,0 -17.75,-30.54 -19.59,-32.75s-1.48,-6.62 -1.48,-6.62s-2.76,-2.94 -1.84,-5.7s-5.33,-12.33 -5.33,-12.33l5.7,-5.33l-31.86,5.7z"/>
  <path id="svg_96" fill="#fff" d="m9.38,293.3l-2.76,2.2l-3.31,29.81s1.84,13.24 1.47,15.27s7.55,20.23 7.55,20.23s26.12,46.54 36.79,48.94l36.06,-25.76l-9.57,-12.14s-3.31,-1.29 -4.14,0c0,0 -17.75,-30.54 -19.59,-32.75s-1.47,-6.62 -1.47,-6.62s-2.76,-2.94 -1.84,-5.7s-5.34,-12.33 -5.34,-12.33l5.7,-5.33l-39.55,-15.82z"/>
  <path id="svg_97" opacity="0.1" d="m180.65,410.08c2,2.43 0.74,13.34 0.74,13.34l-5.52,9.14s0.33,5.9 0.35,13.85l-9.28,2.9a5.51,5.51 0 0 1 -7.15,-5.43l1.6,-51.61l21.65,8.28c-1.84,1.28 0.18,4.42 0.18,4.42s-4.59,2.68 -2.57,5.11z"/>
  <path id="svg_98" fill="#fff" d="m181.76,408.97c2,2.43 0.74,13.35 0.74,13.35l-5.52,9.14s0.33,5.89 0.36,13.85l-9.45,2.95a5.4,5.4 0 0 1 -7,-5.32l1.61,-51.77l21.66,8.28c-1.85,1.28 0.17,4.41 0.17,4.41s-4.57,2.69 -2.57,5.11z"/>
  <path id="svg_99" fill="#cf6f80" d="m188.93,384.37s-1.47,9.39 -5.15,9.94s-5.33,15.19 -9,14.67s-1.24,-13.61 -1.11,-16.15s-4,-13.06 -0.91,-15.45s12.87,0 12.87,0l3.3,6.99z"/>
  <path id="svg_100" opacity="0.1" d="m196.76,312.06l6.94,-14s2.76,10.67 2.76,16.37s3.86,6.26 3.86,6.26s4.23,5 2,8.64s-3.13,12.7 -3.13,12.7s0.73,17.29 -2.58,19.68s-4,8.1 -4,8.1s-6.08,10.85 -5.89,13.43s-8.46,20.05 -8.46,20.05s4.23,-21.71 -20.42,-31.09c0,0 -0.19,-7.37 1.65,-9.39s4.71,-2.94 2.91,-13.15s-0.52,-22.41 -0.52,-24.86s5.52,-17.73 5.52,-17.73l19.36,4.99z"/>
  <path id="svg_101" fill="#fff" d="m199.76,296.06l6.06,2s2.77,10.67 2.77,16.37s3.86,6.26 3.86,6.26s4.23,5 2,8.64s-3.12,12.7 -3.12,12.7s0.73,17.29 -2.58,19.68s-4.05,8.1 -4.05,8.1s-6.07,10.85 -5.88,13.43s-8.47,20.05 -8.47,20.05s4.24,-21.71 -20.42,-31.09c0,0 -0.18,-7.37 1.66,-9.39s4.71,-2.94 2.91,-13.15s-0.52,-22.41 -0.52,-24.86s5.52,-17.73 5.52,-17.73l20.26,-11.01z"/>
  <path id="svg_102" opacity="0.1" d="m65.91,658.93s9.66,-6.07 16,-1.66s-16,1.66 -16,1.66z"/>
  <path id="svg_103" opacity="0.1" d="m140.97,640.16s8.55,-1.1 15.73,6.63s-15.73,-6.63 -15.73,-6.63z"/>
  <g id="svg_104" opacity="0.1">
   <path id="svg_105" d="m153.48,156.55c-1.23,1.06 -2.81,1.82 -3.63,3.23c-0.7,1.21 -0.72,2.7 -1.28,4s-2.19,2.36 -3.32,1.54c-0.26,-9 -4.7,-17.45 -10.15,-24.65a25.62,25.62 0 0 0 -5.49,-5.7a10.75,10.75 0 0 0 -7.47,-2.11c-3,0.41 -5.64,2.45 -8.67,2.7c-4,0.34 -7.59,-2.43 -11.56,-2.57a11.32,11.32 0 0 0 -8.48,3.95a23.16,23.16 0 0 0 -4.55,8.43a49.44,49.44 0 0 0 -2.54,14.56c-0.06,2.79 -0.32,6.27 -2.9,7.31a13.7,13.7 0 0 1 0,2.22c2.6,-1 2.86,-4.52 2.92,-7.32a49.38,49.38 0 0 1 2.54,-14.56a23.21,23.21 0 0 1 4.55,-8.44a11.35,11.35 0 0 1 8.48,-3.94c4,0.14 7.6,2.9 11.56,2.57c3,-0.25 5.66,-2.3 8.67,-2.7a10.75,10.75 0 0 1 7.47,2.11a25.62,25.62 0 0 1 5.49,5.7c5.45,7.19 9.89,15.62 10.15,24.64c1.13,0.83 2.76,-0.25 3.32,-1.53s0.58,-2.78 1.28,-4c0.82,-1.41 2.4,-2.16 3.63,-3.22c3.12,-2.69 3.9,-7.22 3.78,-11.33c0,-0.13 0,-0.26 0,-0.38c-0.19,3.56 -1.14,7.19 -3.8,9.49z"/>
   <path id="svg_106" d="m79.66,155.84c-2.3,-2.53 -5.44,-4.22 -7.55,-6.9a14.64,14.64 0 0 1 -2.91,-8.19a15.4,15.4 0 0 0 2.91,10.39c2.11,2.69 5.25,4.38 7.55,6.91a15,15 0 0 1 3.77,8.92a15,15 0 0 0 -3.77,-11.13z"/>
   <path id="svg_107" d="m159.23,125.65c-0.59,2.45 -1.64,4.78 -2.12,7.25a23.1,23.1 0 0 0 -0.31,5a19.42,19.42 0 0 1 0.31,-2.84c0.48,-2.48 1.53,-4.8 2.12,-7.25a12.3,12.3 0 0 0 0.33,-4.14a13.9,13.9 0 0 1 -0.33,1.98z"/>
  </g>
  <path id="svg_120" fill="url(#ad14f186-b27f-416c-b629-0bafa2f1236e)" d="m747.67,420.72s-16.51,-82.14 -10.19,-92.36c0,0 0.23,-9.5 -0.15,-21.61c0,-0.46 0,-0.92 0,-1.39a30.76,30.76 0 0 0 3.47,2a28.08,28.08 0 0 0 18.9,2.44l-5,-5.57c-1.2,-1.33 -2.45,-2.77 -2.71,-4.53s0.46,-3.33 1.08,-4.9c4.75,-12 5,-27.09 -4.15,-36.25c-7.73,-7.7 -9.61,-17.64 -18,-24.67c-6.13,-5.15 -9.5,-12.7 -12.68,-20c-2.69,-6.17 -5.4,-12.39 -6.94,-18.93c-1.2,-5.11 -1.68,-10.4 -3.33,-15.39s-4.74,-9.84 -9.57,-12.07c-1.72,-0.79 -3.63,-1.24 -5.2,-2.29c-2.06,-1.39 -3.3,-3.65 -4.79,-5.63c-7.57,-10 -32.92,-4.11 -44.92,-0.05a25.27,25.27 0 0 0 -8.88,4.92l0.11,-0.18c0.09,-0.15 0.2,-0.3 0.3,-0.45a15.78,15.78 0 0 0 -3.36,3.75c-1.75,2.77 -2.48,6 -3.94,9c-1.76,3.55 -11.55,13.46 -7.34,17.45a3.55,3.55 0 0 0 1,0.64a8.65,8.65 0 0 0 5,0.5l-0.18,0.43a29.23,29.23 0 0 0 -2.17,11.09c0,16.43 13.55,29.75 30.28,29.75a30.57,30.57 0 0 0 9.27,-1.43c0.07,0.38 0.13,0.76 0.2,1.14c0,0.15 0.05,0.3 0.07,0.45l0,0l-0.53,0.74a1,1 0 0 0 -0.09,-0.13l-15.7,21.94c-2.4,1.69 -16.22,11.69 -17,19.19c-0.82,8.21 -1.64,17.82 -1.64,17.82l-0.11,2.06a6.18,6.18 0 0 1 -5,1.35c-4.9,-0.8 -4.9,18 -4.9,18s-3.26,3 -5.5,0.4s-8.16,6.21 -8.16,6.21l-37.1,1.6l0,0l-0.85,0.05l-2,-6.19a2.61,2.61 0 0 0 -3.27,-1.67a3,3 0 0 0 -0.45,0.19l-0.14,0.08l-0.26,0.18l-0.13,0.12a2,2 0 0 0 -0.2,0.21l-0.12,0.14l-0.06,0.06l0,0a2.52,2.52 0 0 0 -0.36,2.24l1.72,5.31c-7.16,1.44 -14.48,5.5 -8.51,16.68l-30.26,-5.59l9.79,8.22l50.54,10.43c-0.67,1.2 -0.23,2.94 1.86,5.39c9,10.57 25.4,13.44 32,14.18a56.81,56.81 0 0 0 6.49,11l-0.57,10.53s-16.71,80.26 -19.77,84.33a47.57,47.57 0 0 0 4.23,-5.57c-4.85,16.49 -11.63,39.06 -13.41,42.44c-2.86,5.4 -5.51,27.25 -2.25,28.65c1,0.43 3.86,0.22 7.94,-0.09l0,1.81l-0.18,68.59s0.82,42.07 -1.43,46.08s-2.85,12.42 -2.85,12.42s-9,16.59 -16.13,23.26a1.07,1.07 0 0 1 -0.16,0.14l-0.22,-1.56s-8.57,10.82 -27.53,10.21c0,0 -11.41,7.42 5.51,7.82s38.53,-0.6 38.53,-0.6s15.09,-23 27.73,-20l0,17.43l3.87,0l0,-17.71a15.87,15.87 0 0 0 6.89,-10.43a12.68,12.68 0 0 0 -4.52,-11.73a7.5,7.5 0 0 1 -2.47,-5.48l-0.14,0.12c0,-0.35 -0.09,-0.71 -0.13,-1.08c-1.11,-9 -2.5,-27.57 2.41,-41.31c6.73,-18.84 8.77,-45.08 3.87,-60.7a139.56,139.56 0 0 1 -3.89,-15.21c-0.12,-0.65 -0.23,-1.27 -0.33,-1.85a78.85,78.85 0 0 1 9.93,2c11.35,3.13 36.18,3.71 57.38,3.54c0.05,0.58 0.11,1.19 0.18,1.8a65.5,65.5 0 0 0 2.36,12.52c2.66,8 3.88,43.27 3.88,43.27s3.43,29 1.56,40.8c-1,6.56 -2,13.15 -2.57,19.77l0,0.13s-5.62,16 -9.73,24.69c-0.1,0.22 -0.21,0.44 -0.31,0.65a13,13 0 0 0 -3.21,0.71s-5.51,11 -11,12.82s-3.67,7.81 8.76,5.61s31.2,-4 31.2,-4l0.81,-11.22l3.82,-4.78l-1,11.19l4.07,-0.8l-0.54,-13.61l6.25,-7.82s7.55,-6.72 -3.67,-19.94l0,0.29c-0.12,-0.19 -0.23,-0.39 -0.36,-0.58l0,-0.06c-1.86,-2.88 -3.34,-8.25 -0.63,-17.78c4.9,-17.22 7.75,-32.85 7.75,-32.85s10.94,-41.87 -2.21,-61.68l0.58,0a33.32,33.32 0 0 1 -2.83,-8.8q-0.1,-0.54 -0.18,-1.11c9.73,-0.56 19.28,-2.32 27.07,-6.12c-0.03,-0.04 -4.72,-99.4 -8.6,-115.22zm-123.53,-69.3l0,0.2l-2,0.1l2,-0.3zm-6.86,0.95a2.21,2.21 0 0 0 -0.9,0.43a8.88,8.88 0 0 0 -1.57,4.11l-3.12,-0.7s-2.19,-0.47 -5.34,-1l-1.49,-1.5c4.1,-0.34 8.36,-0.84 12.42,-1.34z"/>
  <polygon id="svg_121" fill="#1d2366" points="720.510009765625,692.530029296875 719.3200073242188,706.7000122070312 723.3099975585938,705.9000244140625 722.7100219726562,690.530029296875 720.510009765625,692.530029296875 "/>
  <path id="svg_122" fill="#ffb0b1" d="m629.48,625.25c-4.81,13.7 -3.45,32.19 -2.37,41.17c0.4,3.32 0.77,5.34 0.77,5.34s-7.19,16.38 -7.79,17s-21.16,13.17 -21.16,13.17l-14.37,8.39s-14.58,-6.39 -7.59,-8.59a10.61,10.61 0 0 0 3.77,-2.57c7,-6.65 15.79,-23.18 15.79,-23.18s0.6,-8.39 2.8,-12.38s1.4,-45.92 1.4,-45.92l0.17,-68.35l0,-8.91l27.35,0.2a61.89,61.89 0 0 0 1.18,9a137.59,137.59 0 0 0 3.81,15.16c4.82,15.59 2.82,41.7 -3.76,60.47z"/>
  <path id="svg_123" opacity="0.1" d="m627.88,671.76s-7.19,16.38 -7.79,17s-21.16,13.17 -21.16,13.17l-14.37,8.39s-14.58,-6.39 -7.59,-8.59a10.61,10.61 0 0 0 3.77,-2.57l0.62,4.37l4.79,-0.2l41,-36.89c0.36,3.3 0.73,5.32 0.73,5.32z"/>
  <path id="svg_124" fill="#1d2366" d="m627.38,667.37l-41.23,37.14l-4.79,0.2l-1,-7s-8.38,10.78 -27,10.18c0,0 -11.18,7.39 5.39,7.79s37.73,-0.6 37.73,-0.6s14.78,-23 27.15,-20l0,17.37l3.8,0l0,-17.53a15.79,15.79 0 0 0 6.74,-10.4a12.74,12.74 0 0 0 -4.41,-11.68a7.53,7.53 0 0 1 -2.38,-5.47z"/>
  <path id="svg_125" fill="#ffb0b1" d="m724.31,646.61c-2.66,9.5 -1.21,14.85 0.61,17.72l0,0.06a32.75,32.75 0 0 1 4.78,11.67l0.16,0.9l-18.76,27.35l-10.18,4s-16.37,-5.59 -13.38,-7.19c0.75,-0.39 1.92,-2.47 3.26,-5.34c4,-8.65 9.52,-24.61 9.52,-24.61l0,-0.13c0.58,-6.59 1.5,-13.16 2.52,-19.7c1.83,-11.77 -1.53,-40.66 -1.53,-40.66s-1.2,-35.13 -3.8,-43.12a65.93,65.93 0 0 1 -2.33,-12.44c-0.54,-5 -0.66,-9.12 -0.66,-9.12s10.78,-15 30.54,1.2a21.74,21.74 0 0 1 4.13,4.48c13.65,19.42 2.66,62.2 2.66,62.2s-2.75,15.56 -7.54,32.73z"/>
  <path id="svg_126" opacity="0.1" d="m729.89,676.96l-18.76,27.35l-10.18,4s-16.37,-5.59 -13.38,-7.19c0.75,-0.39 1.92,-2.47 3.26,-5.34c6.93,-0.06 10.52,6.54 10.52,6.54l8.78,-1.4s11.58,-22.76 14.18,-24.15s0.4,-10.39 0.4,-10.39l0,-2.29c0.07,0.08 0.13,0.17 0.21,0.25l0,0.06a32.75,32.75 0 0 1 4.78,11.67l0.19,0.89z"/>
  <path id="svg_127" fill="#1d2366" d="m701.95,702.91s-5,-9.18 -14.58,-5.79c0,0 -5.39,11 -10.78,12.78s-3.59,7.78 8.59,5.59s30.54,-4 30.54,-4l0.8,-11.19l12.38,-15.77s7.38,-6.69 -3.6,-19.86l0,2.29s2.2,9 -0.4,10.39s-14.14,24.16 -14.14,24.16l-8.81,1.4z"/>
  <path id="svg_128" opacity="0.1" d="m628.28,540.6a61.89,61.89 0 0 0 1.18,9c-11.26,-1.65 -21.71,-0.83 -28.56,-0.29l0,-8.91l27.38,0.2z"/>
  <path id="svg_129" opacity="0.1" d="m730.3,554.17s-16,0.78 -35.08,0.94c-0.54,-5 -0.66,-9.12 -0.66,-9.12s10.78,-15 30.54,1.2a21.74,21.74 0 0 1 4.13,4.48a24.4,24.4 0 0 0 1.07,2.5z"/>
  <path id="svg_130" fill="#1d2366" d="m730.3,552.37s-70.08,3.39 -91.44,-2.6s-42.53,-0.8 -45.72,-2.19s-0.6,-23.16 2.2,-28.55s18.16,-59.9 18.16,-59.9l14.78,-77.06l15.57,-4.29l1.1,-0.31l27.13,-7.48l19.88,-5.49s39.53,154.33 36.14,165.71a29.14,29.14 0 0 0 -0.58,13.39a33.42,33.42 0 0 0 2.78,8.77z"/>
  <path id="svg_131" fill="#c7daf5" d="m576.76,329.37s-14,15 -3.4,23.36s17.57,0.8 17.57,0.8l-14.17,-24.16z"/>
  <path id="svg_132" opacity="0.1" d="m576.76,329.37s-14,15 -3.4,23.36s17.57,0.8 17.57,0.8l-14.17,-24.16z"/>
  <path id="svg_133" fill="#ffb0b1" d="m689.87,230.75s-1.64,1.56 -4.11,3.86c-3.52,3.29 -8.73,8.1 -13.35,12.13c-6.4,5.57 -11.68,9.66 -9.79,6.17s1.53,-9.57 0.59,-15.26c-0.07,-0.38 -0.13,-0.76 -0.2,-1.13a104.8,104.8 0 0 0 -3.09,-12.36s10.34,-13.36 16.06,-18.63c2.13,-2 3.62,-2.82 3.71,-1.43c0.1,1.87 1.5,6 3.24,10.38c0.05,0.14 0.1,0.27 0.16,0.41c1.16,3 2.47,6.08 3.62,8.74c1.76,4.08 3.16,7.12 3.16,7.12z"/>
  <path id="svg_134" opacity="0.1" d="m683.09,214.89a29.68,29.68 0 0 1 -19.88,22.76a104.07,104.07 0 0 0 -3.29,-13.49s19.47,-25.15 19.77,-20.06c0.07,1.93 1.59,6.21 3.4,10.79z"/>
  <path id="svg_135" opacity="0.1" d="m661.27,244.37l2.52,-3.55s1.67,10.18 7.81,5.69s6.44,33.79 6.44,33.79l-6.59,98.53l-47.62,-2.85l1.35,-47.61l5.39,-24l13.33,-34.89l7.93,-11.53l9.44,-13.58z"/>
  <path id="svg_136" fill="#1d2366" d="m678.04,280.91l-6,89.09l-0.63,9.44l-26.55,-1.59l-1,-0.06l-20,-1.2l1.35,-47.62l5.39,-24l13.33,-34.89l7.93,-11.53l9.44,-13.63l2.52,-3.54s1.67,10.18 7.81,5.69l0.13,-0.09l0,0c6,-3.8 6.28,33.93 6.28,33.93z"/>
  <path id="svg_137" fill="#fff" d="m631.27,296.63s-2.39,5 -7.19,4.19s-4.79,18 -4.79,18s-3.19,3 -5.39,0.4s-8,6.19 -8,6.19l-36.34,1.6s16.17,7.39 13,29.75c0,0 54.9,-3.4 56.7,-8.59s-7.99,-51.54 -7.99,-51.54z"/>
  <path id="svg_138" opacity="0.03" d="m631.27,296.63s-2.39,5 -7.19,4.19s-4.79,18 -4.79,18s-3.19,3 -5.39,0.4s-8,6.19 -8,6.19l-36.34,1.6s16.17,7.39 13,29.75c0,0 54.9,-3.4 56.7,-8.59s-7.99,-51.54 -7.99,-51.54z"/>
  <polygon id="svg_139" fill="#fff" points="525.6599731445312,338.760009765625 535.239990234375,346.94000244140625 614.0999755859375,363.510009765625 604.3200073242188,353.5299987792969 525.6599731445312,338.760009765625 "/>
  <path id="svg_140" fill="#fff" d="m661.42,247.52c-1.31,2 -5.06,12.24 -8.19,21.18c-2.61,7.45 -4.79,14 -4.79,14s-5.09,33.14 -7.69,39.13s-1.19,29.35 -1.19,29.35l-9.69,57.69s-4.39,29.75 -11.17,47.52c-6.69,17.49 -14.14,25.69 -14.37,25.95c3,-4.06 19.35,-84 19.35,-84l5.4,-100.82s0.79,-9.58 1.59,-17.77s17,-19.37 17,-19.37l15.62,-22.21c1.57,2.1 0.52,5.76 -1.87,9.35z"/>
  <path id="svg_141" fill="#ffb0b1" d="m620.69,377.09s-23,-1 -34.14,-14.38s25.75,-5.34 25.75,-5.34l9.59,2.2l-1.2,17.52z"/>
  <path id="svg_142" opacity="0.1" d="m728.1,530.22a29.14,29.14 0 0 0 -0.58,13.39c-25.09,1.78 -51.93,-5 -51.93,-5c-5,4.6 -18.17,11.38 -18.17,11.38l-7.18,-89c-4.59,-12 -6.39,-74.87 -6.39,-74.87s0.41,-3.29 1,-8.22c0,-0.12 0,-0.25 0.05,-0.37c1.79,-13.77 5.34,-39.62 7.08,-43.11c2.4,-4.8 -7.38,-17.57 -7.38,-17.57l4.45,-37.95l0.54,-4.58c9.38,-4.19 16.57,-17.57 16.57,-17.57l5.52,-9.67l0,0c6,-3.85 6.31,33.88 6.31,33.88l-6,89.09l19.88,-5.49s39.62,154.28 36.23,165.66z"/>
  <path id="svg_143" fill="#fff" d="m753.85,536.37c-27.35,13.58 -77.06,1 -77.06,1c-5,4.6 -18.17,11.38 -18.17,11.38l-7.19,-89c-4.58,-12 -6.38,-74.87 -6.38,-74.87s5.78,-46.91 8.18,-51.7c0.7,-1.4 0.36,-3.48 -0.47,-5.72a72.38,72.38 0 0 1 -4.38,-33.49l1.92,-16.31l0.53,-4.57c9.39,-4.2 16.58,-17.58 16.58,-17.58l5,-8.76l9.2,-16.14l4.36,-7.64l0.74,0.67l5.65,5.12s2.4,2 6,5c7.83,6.6 21.36,18.22 28.34,25.33c6.14,6.26 8.08,30.61 8.64,48.94c0.37,12.07 0.15,21.53 0.15,21.53c-6.19,10.19 10,92 10,92c3.77,15.81 8.36,114.81 8.36,114.81z"/>
  <path id="svg_144" opacity="0.03" d="m701.35,255.31s-18.77,35.73 -16.59,49.31s8.38,28.95 5.39,32.54a11.05,11.05 0 0 1 -8.79,4.39c-3,0.2 -11,5.79 -11,6.39s-7.39,0.6 -14,3.4s-16.37,4.39 -16.37,4.39s-19,-0.6 -20.77,1.2s-3.59,12.57 0.2,21.16s8,15 11.18,16.17s23.36,-5.59 39.73,-7.19s34.14,-14.57 34.14,-14.57s19.57,-7 23,-18.77s-4.19,-76.46 -4.19,-76.46s-5.76,-30.15 -21.93,-21.96z"/>
  <path id="svg_145" opacity="0.03" d="m698.95,252.31s-18.77,35.74 -16.57,49.31s8.38,28.95 5.38,32.55a11,11 0 0 1 -8.78,4.39c-3,0.2 -11,5.79 -11,6.39s-7.39,0.6 -14,3.39s-16.37,4.39 -16.37,4.39s-19,-0.6 -20.76,1.2s-3.6,12.58 0.2,21.16s8,15 11.18,16.17s23.36,-5.59 39.73,-7.18s34.14,-14.58 34.14,-14.58s19.56,-7 22.95,-18.76s-4.19,-76.47 -4.19,-76.47s-5.74,-30.14 -21.91,-21.96z"/>
  <path id="svg_146" fill="#fff" d="m700.76,253.51s-18.77,35.74 -16.57,49.31s8.38,28.95 5.39,32.54a11,11 0 0 1 -8.79,4.4c-3,0.2 -11,5.79 -11,6.38s-7.38,0.6 -14,3.4s-16.37,4.39 -16.37,4.39s-19,-0.6 -20.77,1.2s-3.59,12.58 0.2,21.16s8,15 11.18,16.17s23.36,-5.59 39.73,-7.19s34.14,-14.57 34.14,-14.57s19.57,-7 23,-18.77s-4.14,-76.46 -4.14,-76.46s-5.84,-30.1 -22,-21.96z"/>
  <path id="svg_147" opacity="0.1" d="m700.35,349.37s-15,-3 -9.78,2s5.19,9.38 11.58,9.18s-1.8,-11.18 -1.8,-11.18z"/>
  <path id="svg_148" opacity="0.1" d="m725.7,456.95s-6.78,4.59 6.19,15.17s-6.19,-15.17 -6.19,-15.17z"/>
  <path id="svg_149" opacity="0.1" d="m712.76,494.68c0,0.6 -2.4,22 6.58,27.35s-6.58,-27.35 -6.58,-27.35z"/>
  <path id="svg_150" fill="#ffb0b1" d="m570.18,326.96c-7.24,0.25 -22.88,2.46 -14.77,17.59c7.17,13.39 19.22,4.44 26,-2.35a25.55,25.55 0 0 0 -11.23,-15.24z"/>
  <path id="svg_151" fill="#ffb0b1" d="m582.15,341.37l0,0z"/>
  <path id="svg_152" fill="#ffb0b1" d="m581.5,342.08l0.3,-0.31l-0.3,0.31z"/>
  <path id="svg_153" opacity="0.1" d="m698.36,234.37c-7.68,5.25 -14.12,9.68 -15.38,10.6c-3.44,2.55 -10,17.52 -14.23,25.16c-3.37,6.15 -14.32,7.73 -18.45,8.12l0.53,-4.57c9.39,-4.2 16.58,-17.58 16.58,-17.58l18.56,-32.54l6.39,5.81s2.4,2 6,5z"/>
  <path id="svg_154" fill="#dce7ff" d="m698.36,233.77c-7.68,5.25 -14.12,9.68 -15.38,10.61c-3.44,2.54 -10,17.51 -14.23,25.15c-3.37,6.15 -14.32,7.73 -18.45,8.12l0.53,-4.57c9.39,-4.2 16.58,-17.58 16.58,-17.58l18.56,-32.54l6.39,5.79s2.4,1.98 6,5.02z"/>
  <path id="svg_155" fill="#ffb0b1" d="m683.58,208.29a29.61,29.61 0 0 1 -5.22,16.81a29.66,29.66 0 1 1 5.22,-16.81z"/>
  <path id="svg_156" opacity="0.1" d="m735.34,308.04a26.36,26.36 0 0 1 -9.57,-10.28c-1.67,-3.3 -2.78,-7.11 -5.63,-9.45c-2.57,-2.1 -6,-2.61 -9.2,-3.55c-10.52,-3.11 -19.34,-12.71 -19.67,-23.67c-0.16,-5.16 1.45,-10.31 0.72,-15.42a17.08,17.08 0 0 0 -3.34,-7.95a27.37,27.37 0 0 0 -2.89,-3.11c-1.4,-1.32 -2.87,-2.6 -4.15,-4a15.53,15.53 0 0 1 -2.1,-2.85a13.71,13.71 0 0 1 -1.15,-2.65c-2,-6.12 -0.18,-13.38 -2.38,-19.57l-0.12,-0.34c-0.83,-2.2 -2.52,-4.4 -4.87,-4.57s-4.36,1.78 -6.6,2.65c-4.69,1.82 -9.75,-1.28 -13.66,-4.44s-8.32,-6.77 -13.29,-6.07c-3.29,0.47 -5.89,2.71 -8.92,3.87a12.5,12.5 0 0 1 -2.11,0.61a29.65,29.65 0 0 1 57.17,11.05a29.35,29.35 0 0 1 -0.65,6.19c0.05,0.14 0.1,0.27 0.16,0.41c1.16,3 2.47,6.08 3.62,8.74l5.65,5.12s2.4,2 6,5c7.83,6.6 21.36,18.22 28.34,25.33c6.14,6.28 8.06,30.62 8.64,48.95z"/>
  <path id="svg_157" fill="#591d4b" d="m628.17,178.37c1.43,-2.91 2.14,-6.17 3.85,-8.93c2.51,-4 6.89,-6.56 11.39,-8.11c11.75,-4.05 36.58,-9.93 44,0c1.46,2 2.67,4.22 4.69,5.6c1.54,1.05 3.4,1.5 5.09,2.29c4.73,2.22 7.75,7.06 9.36,12s2.09,10.24 3.27,15.33c1.51,6.53 4.16,12.72 6.8,18.87c3.11,7.26 6.41,14.79 12.41,19.92c8.19,7 10,16.91 17.6,24.59c9,9.12 8.71,24.17 4.07,36.12c-0.61,1.57 -1.3,3.21 -1.06,4.88s1.48,3.19 2.65,4.52l4.92,5.55c-11.64,2.81 -24.81,-3.27 -30.23,-13.94c-1.67,-3.3 -2.78,-7.1 -5.64,-9.45c-2.56,-2.1 -6,-2.6 -9.19,-3.54c-10.52,-3.12 -19.34,-12.73 -19.67,-23.69c-0.16,-5.15 1.45,-10.3 0.72,-15.4a17,17 0 0 0 -3.35,-8c-2.75,-3.59 -6.9,-6 -9.14,-10c-3.79,-6.69 -0.91,-15.38 -3.64,-22.56c-0.84,-2.2 -2.52,-4.4 -4.87,-4.57s-4.36,1.78 -6.61,2.65c-4.68,1.82 -9.74,-1.27 -13.65,-4.44s-8.32,-6.77 -13.3,-6.06c-3.29,0.46 -5.88,2.7 -8.91,3.87c-2.24,0.86 -6.78,1.63 -8.74,-0.26c-4.14,-3.81 5.45,-13.68 7.18,-17.24z"/>
  <path id="svg_158" opacity="0.1" d="m729.76,293.76c-1.68,-3.3 -2.78,-7.1 -5.64,-9.44c-2.56,-2.1 -6,-2.61 -9.2,-3.55c-10.51,-3.11 -19.33,-12.72 -19.67,-23.68c-0.16,-5.15 1.45,-10.31 0.73,-15.41a17.1,17.1 0 0 0 -3.35,-7.95c-2.76,-3.59 -6.91,-6 -9.14,-10c-3.79,-6.68 -0.91,-15.37 -3.65,-22.56c-0.83,-2.19 -2.52,-4.39 -4.86,-4.57s-4.37,1.79 -6.61,2.66c-4.68,1.82 -9.75,-1.28 -13.65,-4.44s-8.33,-6.77 -13.3,-6.07c-3.29,0.47 -5.89,2.71 -8.91,3.87c-2.24,0.86 -6.79,1.64 -8.75,-0.25c-4.12,-4 5.47,-13.85 7.19,-17.39c1.43,-2.92 2.14,-6.17 3.86,-8.93c0.09,-0.15 0.19,-0.3 0.29,-0.45a15.88,15.88 0 0 0 -3.29,3.74c-1.71,2.76 -2.42,6 -3.85,8.93c-1.73,3.54 -11.32,13.42 -7.19,17.39c2,1.9 6.5,1.12 8.74,0.26c3,-1.17 5.62,-3.41 8.91,-3.87c5,-0.71 9.4,2.9 13.3,6.06s9,6.26 13.66,4.44c2.24,-0.87 4.2,-2.83 6.6,-2.65s4,2.37 4.87,4.57c2.73,7.18 -0.15,15.87 3.64,22.56c2.24,3.93 6.39,6.39 9.14,10a17,17 0 0 1 3.35,8c0.73,5.1 -0.88,10.25 -0.72,15.4c0.33,11 9.15,20.57 19.67,23.69c3.17,0.94 6.63,1.44 9.19,3.54c2.87,2.35 4,6.15 5.64,9.45c5.42,10.67 18.59,16.75 30.23,13.94l-2.32,-2.62c-10.09,0.15 -20.3,-5.59 -24.91,-14.67z"/>
  <path id="svg_159" opacity="0.1" d="m660.82,248.12c-1.31,2 -5.06,12.24 -8.19,21.18c-2.93,-1.14 -5.59,-8.41 -5.59,-8.41l15.62,-22.22c1.6,2.2 0.55,5.85 -1.84,9.45z"/>
  <path id="svg_160" fill="#dce7ff" d="m661.42,247.52c-1.31,2 -5.06,12.24 -8.19,21.18c-2.93,-1.13 -5.59,-8.41 -5.59,-8.41l15.62,-22.21c1.6,2.19 0.55,5.85 -1.84,9.44z"/>
  <path id="svg_161" fill="#be8b87" d="m570.6,349.68l-8.66,-27.31a2.55,2.55 0 0 1 1.66,-3.21l0,0a2.56,2.56 0 0 1 3.2,1.66l8.66,27.28l-0.86,5.71l-4,-4.13z"/>
  <path id="svg_162" opacity="0.1" fill="#fff" d="m562.76,319.97l0,0a2.56,2.56 0 0 1 3.21,1.66l8.66,27.28l-0.65,4.28l0.63,0.66l0.86,-5.71l-8.71,-27.28a2.56,2.56 0 0 0 -3.2,-1.66l0,0a2.56,2.56 0 0 0 -1.33,1a3.48,3.48 0 0 1 0.53,-0.23z"/>
  <polygon id="svg_163" fill="#efc8c4" points="570.5999755859375,349.67999267578125 575.4600219726562,348.1400146484375 574.75,352.82000732421875 574.5999755859375,353.8500061035156 573.1799926757812,352.3699951171875 570.5999755859375,349.67999267578125 "/>
  <path id="svg_164" fill="#727a9c" d="m573.18,352.37a1,1 0 0 1 0.31,-0.26a0.44,0.44 0 0 1 0.47,0a1.24,1.24 0 0 1 0.17,0.27a0.86,0.86 0 0 0 0.62,0.41l-0.15,1l-1.42,-1.42z"/>
  <path id="svg_165" fill="#ffb0b1" d="m561.89,332.07s17.37,-0.1 13.28,7.29s-10.48,8.28 -10.48,8.28l-2.8,-15.57z"/>
  <path id="svg_166" fill="#f9a826" d="m453.86,1.05402l-0.75,0c-29.84,0 -56.23,15.79 -71.41,39.09c-15.18,-23.3 -41.57,-39.09 -71.41,-39.09l-0.75,0a85,85 0 0 0 -84.19,84.95c0,27.81 12.18,67.27 35.93,99.74c45.25,61.87 120.42,116 120.42,116s75.17,-54.12 120.41,-116c23.76,-32.47 35.93,-71.93 35.93,-99.74a85,85 0 0 0 -84.18,-84.95zm-10.73,189.45a16.85,16.85 0 0 1 -15.67,-10.82l-17.84,0a5.64,5.64 0 0 1 -5.31,-3.84l-5.48,-16.51l-17.34,60.59a5.61,5.61 0 0 1 -5.38,4.05l-0.35,0a5.54,5.54 0 0 1 -5.2,-4.64l-17.87,-107.48l-13.06,63.6a5.57,5.57 0 0 1 -5.41,4.23l-25.13,0a5.59,5.59 0 1 1 0,-11.17l20.73,0l18.5,-85.51a5.61,5.61 0 0 1 11,0.46l18.25,109.64l15.54,-54.21a5.5,5.5 0 0 1 5.23,-4l0.11,0a5.58,5.58 0 0 1 5.3,3.84l9.91,29.81l13.58,0a16.76,16.76 0 1 1 15.92,22l-0.03,-0.04z"/>
 </g>
</svg>